<svg width="36" height="26" viewBox="0 0 36 26" fill="none" xmlns="http://www.w3.org/2000/svg">
<path fill-rule="evenodd" clip-rule="evenodd" d="M0 4.87642C0 2.59221 1.86673 0.714355 4.13681 0.714355H21.8366C24.107 0.714355 25.9734 2.59249 25.9734 4.87642V21.1237C25.9734 23.4079 24.1067 25.2858 21.8366 25.2858H4.13681C1.86673 25.2858 0 23.4077 0 21.1237V4.87642ZM5.65104 6.11177C5.42709 5.88647 5.1236 5.75927 4.80699 5.75819L4.80711 5.75824C4.48886 5.75689 4.18324 5.88302 3.95717 6.10858C3.73136 6.33391 3.60386 6.6406 3.60252 6.96075V12.995C3.60118 13.317 3.72787 13.6259 3.95395 13.8536C4.18 14.0811 4.48723 14.2085 4.80705 14.2072C5.12551 14.2058 5.43006 14.0776 5.65426 13.8501C5.87846 13.6229 6.00381 13.3154 6.00247 12.995V6.9607C6.00114 6.64213 5.875 6.33707 5.65104 6.11177ZM32.3249 4.76011C32.5788 4.62348 32.8647 4.54829 33.1475 4.52673L33.1475 4.52693C33.4304 4.50537 33.7092 4.53609 33.9538 4.61641C34.4426 4.77675 34.8115 5.06834 35.0975 5.39227C35.6697 6.03989 36 6.833 36 7.73609L35.9997 18.262C35.9997 19.1438 35.6756 19.9377 35.1067 20.5705C34.5377 21.2033 33.4799 21.6919 32.4653 21.3016L28.3732 19.7289V6.89178L32.3249 4.76011Z" fill="white"/>
<path fill-rule="evenodd" clip-rule="evenodd" d="M0 4.87642C0 2.59221 1.86673 0.714355 4.13681 0.714355H21.8366C24.107 0.714355 25.9734 2.59249 25.9734 4.87642V21.1237C25.9734 23.4079 24.1067 25.2858 21.8366 25.2858H4.13681C1.86673 25.2858 0 23.4077 0 21.1237V4.87642ZM5.65104 6.11177C5.42709 5.88647 5.1236 5.75927 4.80699 5.75819L4.80711 5.75824C4.48886 5.75689 4.18324 5.88302 3.95717 6.10858C3.73136 6.33391 3.60386 6.6406 3.60252 6.96075V12.995C3.60118 13.317 3.72787 13.6259 3.95395 13.8536C4.18 14.0811 4.48723 14.2085 4.80705 14.2072C5.12551 14.2058 5.43006 14.0776 5.65426 13.8501C5.87846 13.6229 6.00381 13.3154 6.00247 12.995V6.9607C6.00114 6.64213 5.875 6.33707 5.65104 6.11177ZM32.3249 4.76011C32.5788 4.62348 32.8647 4.54829 33.1475 4.52673L33.1475 4.52693C33.4304 4.50537 33.7092 4.53609 33.9538 4.61641C34.4426 4.77675 34.8115 5.06834 35.0975 5.39227C35.6697 6.03989 36 6.833 36 7.73609L35.9997 18.262C35.9997 19.1438 35.6756 19.9377 35.1067 20.5705C34.5377 21.2033 33.4799 21.6919 32.4653 21.3016L28.3732 19.7289V6.89178L32.3249 4.76011Z" fill="url(#paint0_linear_38_1532)"/>
<defs>
<linearGradient id="paint0_linear_38_1532" x1="-0.946152" y1="34.0254" x2="32.6895" y2="19.4866" gradientUnits="userSpaceOnUse">
<stop stop-color="#0D748B"/>
<stop offset="1" stop-color="#1A0B73"/>
</linearGradient>
</defs>
</svg>
