<svg width="20" height="20" viewBox="0 0 20 20" fill="none" xmlns="http://www.w3.org/2000/svg">
<path d="M17.6545 3.25454C17.1984 2.79688 16.6565 2.43376 16.0598 2.18598C15.4631 1.93821 14.8233 1.81067 14.1772 1.81067C13.5311 1.81067 12.8914 1.93821 12.2947 2.18598C11.6979 2.43376 11.156 2.79688 10.6999 3.25454L9.99995 3.96363L9.29994 3.25454C8.84387 2.79688 8.30195 2.43376 7.70524 2.18598C7.10853 1.93821 6.46878 1.81067 5.82267 1.81067C5.17657 1.81067 4.53682 1.93821 3.94011 2.18598C3.3434 2.43376 2.80147 2.79688 2.3454 3.25454C0.418127 5.18181 0.299945 8.43636 2.72722 10.9091L9.99995 18.1818L17.2727 10.9091C19.6999 8.43636 19.5818 5.18181 17.6545 3.25454Z" fill="none"/>
<path d="M17.6545 3.25454C17.1984 2.79688 16.6565 2.43376 16.0598 2.18598C15.4631 1.93821 14.8233 1.81067 14.1772 1.81067C13.5311 1.81067 12.8914 1.93821 12.2947 2.18598C11.6979 2.43376 11.156 2.79688 10.6999 3.25454L9.99995 3.96363L9.29994 3.25454C8.84387 2.79688 8.30195 2.43376 7.70524 2.18598C7.10853 1.93821 6.46878 1.81067 5.82267 1.81067C5.17657 1.81067 4.53682 1.93821 3.94011 2.18598C3.3434 2.43376 2.80147 2.79688 2.3454 3.25454C0.418127 5.18181 0.299945 8.43636 2.72722 10.9091L9.99995 18.1818L17.2727 10.9091C19.6999 8.43636 19.5818 5.18181 17.6545 3.25454Z" fill="url(#paint0_linear_1011_17)"/>
<path d="M17.6545 3.25454C17.1984 2.79688 16.6565 2.43376 16.0598 2.18598C15.4631 1.93821 14.8233 1.81067 14.1772 1.81067C13.5311 1.81067 12.8914 1.93821 12.2947 2.18598C11.6979 2.43376 11.156 2.79688 10.6999 3.25454L9.99995 3.96363L9.29994 3.25454C8.84387 2.79688 8.30195 2.43376 7.70524 2.18598C7.10853 1.93821 6.46878 1.81067 5.82267 1.81067C5.17657 1.81067 4.53682 1.93821 3.94011 2.18598C3.3434 2.43376 2.80147 2.79688 2.3454 3.25454C0.418127 5.18181 0.299945 8.43636 2.72722 10.9091L9.99995 18.1818L17.2727 10.9091C19.6999 8.43636 19.5818 5.18181 17.6545 3.25454Z" stroke="none" stroke-width="1.5" stroke-linecap="round" stroke-linejoin="round"/>
<path d="M17.6545 3.25454C17.1984 2.79688 16.6565 2.43376 16.0598 2.18598C15.4631 1.93821 14.8233 1.81067 14.1772 1.81067C13.5311 1.81067 12.8914 1.93821 12.2947 2.18598C11.6979 2.43376 11.156 2.79688 10.6999 3.25454L9.99995 3.96363L9.29994 3.25454C8.84387 2.79688 8.30195 2.43376 7.70524 2.18598C7.10853 1.93821 6.46878 1.81067 5.82267 1.81067C5.17657 1.81067 4.53682 1.93821 3.94011 2.18598C3.3434 2.43376 2.80147 2.79688 2.3454 3.25454C0.418127 5.18181 0.299945 8.43636 2.72722 10.9091L9.99995 18.1818L17.2727 10.9091C19.6999 8.43636 19.5818 5.18181 17.6545 3.25454Z" stroke="url(#paint1_linear_1011_17)" stroke-width="1.5" stroke-linecap="round" stroke-linejoin="round"/>
<defs>
<linearGradient id="paint0_linear_1011_17" x1="0.423623" y1="24.0047" x2="18.6422" y2="18.0306" gradientUnits="userSpaceOnUse">
<stop stop-color="#0D748B"/>
<stop offset="1" stop-color="#1A0B73"/>
</linearGradient>
<linearGradient id="paint1_linear_1011_17" x1="0.423623" y1="24.0047" x2="18.6422" y2="18.0306" gradientUnits="userSpaceOnUse">
<stop stop-color="#0D748B"/>
<stop offset="1" stop-color="#1A0B73"/>
</linearGradient>
</defs>
</svg>
